<?xml version="1.0" encoding="utf-8"?>
<!-- Generator: Adobe Illustrator 25.3.1, SVG Export Plug-In . SVG Version: 6.00 Build 0)  -->
<svg version="1.1" xmlns="http://www.w3.org/2000/svg" xmlns:xlink="http://www.w3.org/1999/xlink" x="0px" y="0px"
	 viewBox="0 0 198.4 198.4" style="enable-background:new 0 0 198.4 198.4;" xml:space="preserve">
<style type="text/css">
	.st0{fill:#FFFFFF;}
	.st1{fill:none;}
	.st2{fill:#65C4CC;}
	.st3{fill:#EEEEEE;stroke:#AFAFAF;stroke-miterlimit:10;}
	.st4{fill:none;stroke:#000000;stroke-width:5;stroke-miterlimit:8;stroke-dasharray:54,26,0,0;}
	.st5{fill:none;stroke:#000000;stroke-width:4;stroke-miterlimit:10;}
	.st6{fill:none;stroke:#FFFFFF;stroke-width:8;stroke-miterlimit:10;}
	.st7{fill:none;stroke:#000000;stroke-width:8;stroke-miterlimit:10;}
	.st8{fill:none;stroke:#000000;stroke-width:8;stroke-linecap:round;stroke-miterlimit:10;}
	.st9{fill:none;stroke:#55555B;stroke-width:4;stroke-miterlimit:10;}
	.st10{fill:none;stroke:#55555B;stroke-width:2;stroke-miterlimit:10;}
	.st11{fill:#55555B;}
</style>
<g id="_x31_st_Tries">
	<g id="Ebene_2">
		<g id="Ebene_3">
		</g>
	</g>
</g>
<g id="Painting_A_Map">
	<g id="Ebene_10">
	</g>
</g>
<g id="Headphones">
</g>
<g id="Reference">
</g>
<g id="_x32_nd_Tries">
</g>
<g id="Linie__x26__Schrift">
</g>
<g id="Ebene_6">
	<g>
		<path class="st6" d="M99.5,187c-20.6-28.1-40.8-52.8-57.7-79.5C25.1,81,33.3,47,57.9,26.5C82,6.5,116.4,6.3,140.7,26.3
			c24.2,19.8,32.6,54.5,16.1,81C140.1,134.2,119.9,158.9,99.5,187z"/>
		<path class="st6" d="M124.5,75.7c-0.7,13.7-12.9,24.4-26.8,23.5c-14.1-0.9-24.9-12.9-23.4-26.7c1.7-15,11.1-22,25.6-22.1
			C114.7,50.4,125.2,61.5,124.5,75.7z"/>
	</g>
</g>
<g id="Ebene_11">
</g>
</svg>
